<?xml version="1.0" encoding="UTF-8"?>
<!DOCTYPE svg PUBLIC "-//W3C//DTD SVG 1.1//EN" "http://www.w3.org/Graphics/SVG/1.1/DTD/svg11.dtd">
<!-- Creator: CorelDRAW X5 -->
<svg xmlns="http://www.w3.org/2000/svg" xml:space="preserve" width="1200px" height="800px" style="shape-rendering:geometricPrecision; text-rendering:geometricPrecision; image-rendering:optimizeQuality; fill-rule:evenodd; clip-rule:evenodd"
viewBox="0 0 7188 8382"
 xmlns:xlink="http://www.w3.org/1999/xlink"
 xmlns:svg="http://www.w3.org/2000/svg">
 <defs>
  <style type="text/css">
   <![CDATA[
    .fil1 {fill:white;fill-rule:nonzero}
    .fil0 {fill:transparent;fill-rule:nonzero}
   ]]>
  </style>
 </defs>
 <g id="Layer_x0020_1">
  <metadata id="CorelCorpID_0Corel-Layer"/>
 </g>
 <g id="Layer_x0020_1_0">
  <metadata id="CorelCorpID_1Corel-Layer"/>
  <polygon class="fil0" points="6589,3892 5391,5090 4193,5090 3145,6138 3145,5090 1797,5090 1797,597 6589,597 "/>
  <path class="fil1" d="M7188 -2l0 4193 -2695 2695 -1198 0 -1498 1498 0 -1498 -1797 0 0 -5391 1497 -1498 5691 0zm-599 599l0 0 -4792 0 0 4492 1348 0 0 1048 1048 -1048 1198 0 1198 -1198 0 -3294zm-899 1048l0 0 0 1797 -599 0 0 -1797 599 0zm-1647 0l0 0 0 1797 -599 0 0 -1797 599 0z"/>
 </g>
</svg>
